<svg width="434" height="112" xmlns="http://www.w3.org/2000/svg" style="background:#FFFDF9;border-radius:12px">
<circle cx="42" cy="42" r="28" fill="#E8704A" stroke="#B85C30" stroke-width="2"/>
<line x1="42" y1="42" x2="42" y2="14" stroke="#B85C30" stroke-width="1.2" opacity="0.5"/>
<line x1="42" y1="42" x2="66" y2="56" stroke="#B85C30" stroke-width="1.2" opacity="0.5"/>
<line x1="42" y1="42" x2="18" y2="56" stroke="#B85C30" stroke-width="1.2" opacity="0.5"/>
<text x="42" y="46" text-anchor="middle" font-size="12" fill="white" font-weight="bold" font-family="Georgia,serif">1</text>
<circle cx="112" cy="42" r="28" fill="#E8704A" stroke="#B85C30" stroke-width="2"/>
<line x1="112" y1="42" x2="112" y2="14" stroke="#B85C30" stroke-width="1.2" opacity="0.5"/>
<line x1="112" y1="42" x2="136" y2="56" stroke="#B85C30" stroke-width="1.2" opacity="0.5"/>
<line x1="112" y1="42" x2="88" y2="56" stroke="#B85C30" stroke-width="1.2" opacity="0.5"/>
<text x="112" y="46" text-anchor="middle" font-size="12" fill="white" font-weight="bold" font-family="Georgia,serif">2</text>
<circle cx="182" cy="42" r="28" fill="#F0EDE8" stroke="#CCC" stroke-width="2"/>
<line x1="182" y1="42" x2="182" y2="14" stroke="#CCC" stroke-width="1.2" opacity="0.5"/>
<line x1="182" y1="42" x2="206" y2="56" stroke="#CCC" stroke-width="1.2" opacity="0.5"/>
<line x1="182" y1="42" x2="158" y2="56" stroke="#CCC" stroke-width="1.2" opacity="0.5"/>
<line x1="158" y1="18" x2="206" y2="66" stroke="#C0392B" stroke-width="2.5" stroke-linecap="round"/>
<line x1="206" y1="18" x2="158" y2="66" stroke="#C0392B" stroke-width="2.5" stroke-linecap="round"/>
<text x="182" y="46" text-anchor="middle" font-size="12" fill="white" font-weight="bold" font-family="Georgia,serif"></text>
<circle cx="252" cy="42" r="28" fill="#F0EDE8" stroke="#CCC" stroke-width="2"/>
<line x1="252" y1="42" x2="252" y2="14" stroke="#CCC" stroke-width="1.2" opacity="0.5"/>
<line x1="252" y1="42" x2="276" y2="56" stroke="#CCC" stroke-width="1.2" opacity="0.5"/>
<line x1="252" y1="42" x2="228" y2="56" stroke="#CCC" stroke-width="1.2" opacity="0.5"/>
<line x1="228" y1="18" x2="276" y2="66" stroke="#C0392B" stroke-width="2.5" stroke-linecap="round"/>
<line x1="276" y1="18" x2="228" y2="66" stroke="#C0392B" stroke-width="2.5" stroke-linecap="round"/>
<text x="252" y="46" text-anchor="middle" font-size="12" fill="white" font-weight="bold" font-family="Georgia,serif"></text>
<circle cx="322" cy="42" r="28" fill="#F0EDE8" stroke="#CCC" stroke-width="2"/>
<line x1="322" y1="42" x2="322" y2="14" stroke="#CCC" stroke-width="1.2" opacity="0.5"/>
<line x1="322" y1="42" x2="346" y2="56" stroke="#CCC" stroke-width="1.2" opacity="0.5"/>
<line x1="322" y1="42" x2="298" y2="56" stroke="#CCC" stroke-width="1.2" opacity="0.5"/>
<line x1="298" y1="18" x2="346" y2="66" stroke="#C0392B" stroke-width="2.5" stroke-linecap="round"/>
<line x1="346" y1="18" x2="298" y2="66" stroke="#C0392B" stroke-width="2.5" stroke-linecap="round"/>
<text x="322" y="46" text-anchor="middle" font-size="12" fill="white" font-weight="bold" font-family="Georgia,serif"></text>
<circle cx="392" cy="42" r="28" fill="#F0EDE8" stroke="#CCC" stroke-width="2"/>
<line x1="392" y1="42" x2="392" y2="14" stroke="#CCC" stroke-width="1.2" opacity="0.5"/>
<line x1="392" y1="42" x2="416" y2="56" stroke="#CCC" stroke-width="1.2" opacity="0.5"/>
<line x1="392" y1="42" x2="368" y2="56" stroke="#CCC" stroke-width="1.2" opacity="0.5"/>
<line x1="368" y1="18" x2="416" y2="66" stroke="#C0392B" stroke-width="2.5" stroke-linecap="round"/>
<line x1="416" y1="18" x2="368" y2="66" stroke="#C0392B" stroke-width="2.5" stroke-linecap="round"/>
<text x="392" y="46" text-anchor="middle" font-size="12" fill="white" font-weight="bold" font-family="Georgia,serif"></text>
<text x="217" y="106" text-anchor="middle" font-size="12" fill="#8B4513" font-weight="bold" font-family="Georgia,serif">Cancel 4 → 2 remain</text>
</svg>