<svg width="294" height="112" xmlns="http://www.w3.org/2000/svg" style="background:#FFFDF9;border-radius:12px">
<circle cx="42" cy="42" r="28" fill="#F0EDE8" stroke="#CCC" stroke-width="2"/>
<line x1="42" y1="42" x2="42" y2="14" stroke="#CCC" stroke-width="1.2" opacity="0.5"/>
<line x1="42" y1="42" x2="66" y2="56" stroke="#CCC" stroke-width="1.2" opacity="0.5"/>
<line x1="42" y1="42" x2="18" y2="56" stroke="#CCC" stroke-width="1.2" opacity="0.5"/>
<line x1="18" y1="18" x2="66" y2="66" stroke="#C0392B" stroke-width="2.5" stroke-linecap="round"/>
<line x1="66" y1="18" x2="18" y2="66" stroke="#C0392B" stroke-width="2.5" stroke-linecap="round"/>
<text x="42" y="46" text-anchor="middle" font-size="12" fill="white" font-weight="bold" font-family="Georgia,serif"></text>
<circle cx="112" cy="42" r="28" fill="#F0EDE8" stroke="#CCC" stroke-width="2"/>
<line x1="112" y1="42" x2="112" y2="14" stroke="#CCC" stroke-width="1.2" opacity="0.5"/>
<line x1="112" y1="42" x2="136" y2="56" stroke="#CCC" stroke-width="1.2" opacity="0.5"/>
<line x1="112" y1="42" x2="88" y2="56" stroke="#CCC" stroke-width="1.2" opacity="0.5"/>
<line x1="88" y1="18" x2="136" y2="66" stroke="#C0392B" stroke-width="2.5" stroke-linecap="round"/>
<line x1="136" y1="18" x2="88" y2="66" stroke="#C0392B" stroke-width="2.5" stroke-linecap="round"/>
<text x="112" y="46" text-anchor="middle" font-size="12" fill="white" font-weight="bold" font-family="Georgia,serif"></text>
<circle cx="182" cy="42" r="28" fill="#F0EDE8" stroke="#CCC" stroke-width="2"/>
<line x1="182" y1="42" x2="182" y2="14" stroke="#CCC" stroke-width="1.2" opacity="0.5"/>
<line x1="182" y1="42" x2="206" y2="56" stroke="#CCC" stroke-width="1.2" opacity="0.5"/>
<line x1="182" y1="42" x2="158" y2="56" stroke="#CCC" stroke-width="1.2" opacity="0.5"/>
<line x1="158" y1="18" x2="206" y2="66" stroke="#C0392B" stroke-width="2.5" stroke-linecap="round"/>
<line x1="206" y1="18" x2="158" y2="66" stroke="#C0392B" stroke-width="2.5" stroke-linecap="round"/>
<text x="182" y="46" text-anchor="middle" font-size="12" fill="white" font-weight="bold" font-family="Georgia,serif"></text>
<circle cx="252" cy="42" r="28" fill="#F0EDE8" stroke="#CCC" stroke-width="2"/>
<line x1="252" y1="42" x2="252" y2="14" stroke="#CCC" stroke-width="1.2" opacity="0.5"/>
<line x1="252" y1="42" x2="276" y2="56" stroke="#CCC" stroke-width="1.2" opacity="0.5"/>
<line x1="252" y1="42" x2="228" y2="56" stroke="#CCC" stroke-width="1.2" opacity="0.5"/>
<line x1="228" y1="18" x2="276" y2="66" stroke="#C0392B" stroke-width="2.5" stroke-linecap="round"/>
<line x1="276" y1="18" x2="228" y2="66" stroke="#C0392B" stroke-width="2.5" stroke-linecap="round"/>
<text x="252" y="46" text-anchor="middle" font-size="12" fill="white" font-weight="bold" font-family="Georgia,serif"></text>
<text x="147" y="106" text-anchor="middle" font-size="12" fill="#8B4513" font-weight="bold" font-family="Georgia,serif">Remove 3 groups of 4 negative pies</text>
</svg>