<svg width="600" height="130" xmlns="http://www.w3.org/2000/svg" style="background:#FAFAF8;border-radius:12px">
<defs>
<marker id="a1" markerWidth="10" markerHeight="7" refX="9" refY="3.5" orient="auto"><polygon points="0 0,10 3.5,0 7" fill="#5C3D2E"/></marker>
<marker id="a2" markerWidth="10" markerHeight="7" refX="1" refY="3.5" orient="auto"><polygon points="10 0,0 3.5,10 7" fill="#5C3D2E"/></marker>
<marker id="ag" markerWidth="10" markerHeight="7" refX="9" refY="3.5" orient="auto"><polygon points="0 0,10 3.5,0 7" fill="#2E7D4F"/></marker>
<marker id="ar" markerWidth="10" markerHeight="7" refX="9" refY="3.5" orient="auto"><polygon points="0 0,10 3.5,0 7" fill="#C0392B"/></marker>
</defs>
<line x1="40" y1="65" x2="560" y2="65" stroke="#5C3D2E" stroke-width="2.5" marker-end="url(#a1)" marker-start="url(#a2)"/>
<line x1="55.0" y1="59" x2="55.0" y2="71" stroke="#888" stroke-width="1"/>
<text x="55.0" y="92" text-anchor="middle" font-size="12" fill="#888" font-weight="normal" font-family="Georgia,serif">-8</text>
<line x1="92.7" y1="59" x2="92.7" y2="71" stroke="#888" stroke-width="1"/>
<text x="92.7" y="92" text-anchor="middle" font-size="12" fill="#888" font-weight="normal" font-family="Georgia,serif">-7</text>
<line x1="130.4" y1="59" x2="130.4" y2="71" stroke="#888" stroke-width="1"/>
<text x="130.4" y="92" text-anchor="middle" font-size="12" fill="#888" font-weight="normal" font-family="Georgia,serif">-6</text>
<line x1="168.1" y1="55" x2="168.1" y2="75" stroke="#888" stroke-width="1"/>
<text x="168.1" y="92" text-anchor="middle" font-size="12" fill="#888" font-weight="normal" font-family="Georgia,serif">-5</text>
<line x1="205.8" y1="59" x2="205.8" y2="71" stroke="#888" stroke-width="1"/>
<text x="205.8" y="92" text-anchor="middle" font-size="12" fill="#888" font-weight="normal" font-family="Georgia,serif">-4</text>
<line x1="243.5" y1="59" x2="243.5" y2="71" stroke="#888" stroke-width="1"/>
<text x="243.5" y="92" text-anchor="middle" font-size="12" fill="#888" font-weight="normal" font-family="Georgia,serif">-3</text>
<line x1="281.2" y1="55" x2="281.2" y2="75" stroke="#888" stroke-width="1"/>
<text x="281.2" y="92" text-anchor="middle" font-size="12" fill="#888" font-weight="normal" font-family="Georgia,serif">-2</text>
<line x1="318.8" y1="55" x2="318.8" y2="75" stroke="#888" stroke-width="1"/>
<text x="318.8" y="92" text-anchor="middle" font-size="12" fill="#888" font-weight="normal" font-family="Georgia,serif">-1</text>
<line x1="356.5" y1="55" x2="356.5" y2="75" stroke="#8B1A1A" stroke-width="2"/>
<text x="356.5" y="92" text-anchor="middle" font-size="12" fill="#8B1A1A" font-weight="bold" font-family="Georgia,serif">0</text>
<line x1="394.2" y1="55" x2="394.2" y2="75" stroke="#888" stroke-width="1"/>
<text x="394.2" y="92" text-anchor="middle" font-size="12" fill="#888" font-weight="normal" font-family="Georgia,serif">1</text>
<line x1="431.9" y1="55" x2="431.9" y2="75" stroke="#888" stroke-width="1"/>
<text x="431.9" y="92" text-anchor="middle" font-size="12" fill="#888" font-weight="normal" font-family="Georgia,serif">2</text>
<line x1="469.6" y1="59" x2="469.6" y2="71" stroke="#888" stroke-width="1"/>
<text x="469.6" y="92" text-anchor="middle" font-size="12" fill="#888" font-weight="normal" font-family="Georgia,serif">3</text>
<line x1="507.3" y1="59" x2="507.3" y2="71" stroke="#888" stroke-width="1"/>
<text x="507.3" y="92" text-anchor="middle" font-size="12" fill="#888" font-weight="normal" font-family="Georgia,serif">4</text>
<line x1="545.0" y1="55" x2="545.0" y2="75" stroke="#888" stroke-width="1"/>
<text x="545.0" y="92" text-anchor="middle" font-size="12" fill="#888" font-weight="normal" font-family="Georgia,serif">5</text>
<circle cx="92.7" cy="65" r="8" fill="#C0392B" stroke="white" stroke-width="2"/>
<text x="92.7" y="30" text-anchor="middle" font-size="11" fill="#C0392B" font-weight="bold" font-family="Georgia,serif">-7</text>
<circle cx="281.2" cy="65" r="8" fill="#E8A020" stroke="white" stroke-width="2"/>
<text x="281.2" y="30" text-anchor="middle" font-size="11" fill="#E8A020" font-weight="bold" font-family="Georgia,serif">-2</text>
<circle cx="469.6" cy="65" r="8" fill="#2E7D4F" stroke="white" stroke-width="2"/>
<text x="469.6" y="30" text-anchor="middle" font-size="11" fill="#2E7D4F" font-weight="bold" font-family="Georgia,serif">3</text>
<text x="300" y="120" text-anchor="middle" font-size="11" fill="#666" font-family="Georgia,serif" font-style="italic">-7 < -2 < 3  (further right = greater)</text>
</svg>