<svg width="600" height="130" xmlns="http://www.w3.org/2000/svg" style="background:#FAFAF8;border-radius:12px">
<defs>
<marker id="a1" markerWidth="10" markerHeight="7" refX="9" refY="3.5" orient="auto"><polygon points="0 0,10 3.5,0 7" fill="#5C3D2E"/></marker>
<marker id="a2" markerWidth="10" markerHeight="7" refX="1" refY="3.5" orient="auto"><polygon points="10 0,0 3.5,10 7" fill="#5C3D2E"/></marker>
<marker id="ag" markerWidth="10" markerHeight="7" refX="9" refY="3.5" orient="auto"><polygon points="0 0,10 3.5,0 7" fill="#2E7D4F"/></marker>
<marker id="ar" markerWidth="10" markerHeight="7" refX="9" refY="3.5" orient="auto"><polygon points="0 0,10 3.5,0 7" fill="#C0392B"/></marker>
</defs>
<line x1="40" y1="65" x2="560" y2="65" stroke="#5C3D2E" stroke-width="2.5" marker-end="url(#a1)" marker-start="url(#a2)"/>
<line x1="55.0" y1="59" x2="55.0" y2="71" stroke="#888" stroke-width="1"/>
<text x="55.0" y="92" text-anchor="middle" font-size="12" fill="#888" font-weight="normal" font-family="Georgia,serif">-6</text>
<line x1="95.8" y1="55" x2="95.8" y2="75" stroke="#888" stroke-width="1"/>
<text x="95.8" y="92" text-anchor="middle" font-size="12" fill="#888" font-weight="normal" font-family="Georgia,serif">-5</text>
<line x1="136.7" y1="59" x2="136.7" y2="71" stroke="#888" stroke-width="1"/>
<text x="136.7" y="92" text-anchor="middle" font-size="12" fill="#888" font-weight="normal" font-family="Georgia,serif">-4</text>
<line x1="177.5" y1="59" x2="177.5" y2="71" stroke="#888" stroke-width="1"/>
<text x="177.5" y="92" text-anchor="middle" font-size="12" fill="#888" font-weight="normal" font-family="Georgia,serif">-3</text>
<line x1="218.3" y1="55" x2="218.3" y2="75" stroke="#888" stroke-width="1"/>
<text x="218.3" y="92" text-anchor="middle" font-size="12" fill="#888" font-weight="normal" font-family="Georgia,serif">-2</text>
<line x1="259.2" y1="55" x2="259.2" y2="75" stroke="#888" stroke-width="1"/>
<text x="259.2" y="92" text-anchor="middle" font-size="12" fill="#888" font-weight="normal" font-family="Georgia,serif">-1</text>
<line x1="300.0" y1="55" x2="300.0" y2="75" stroke="#8B1A1A" stroke-width="2"/>
<text x="300.0" y="92" text-anchor="middle" font-size="12" fill="#8B1A1A" font-weight="bold" font-family="Georgia,serif">0</text>
<line x1="340.8" y1="55" x2="340.8" y2="75" stroke="#888" stroke-width="1"/>
<text x="340.8" y="92" text-anchor="middle" font-size="12" fill="#888" font-weight="normal" font-family="Georgia,serif">1</text>
<line x1="381.7" y1="55" x2="381.7" y2="75" stroke="#888" stroke-width="1"/>
<text x="381.7" y="92" text-anchor="middle" font-size="12" fill="#888" font-weight="normal" font-family="Georgia,serif">2</text>
<line x1="422.5" y1="59" x2="422.5" y2="71" stroke="#888" stroke-width="1"/>
<text x="422.5" y="92" text-anchor="middle" font-size="12" fill="#888" font-weight="normal" font-family="Georgia,serif">3</text>
<line x1="463.3" y1="59" x2="463.3" y2="71" stroke="#888" stroke-width="1"/>
<text x="463.3" y="92" text-anchor="middle" font-size="12" fill="#888" font-weight="normal" font-family="Georgia,serif">4</text>
<line x1="504.2" y1="55" x2="504.2" y2="75" stroke="#888" stroke-width="1"/>
<text x="504.2" y="92" text-anchor="middle" font-size="12" fill="#888" font-weight="normal" font-family="Georgia,serif">5</text>
<line x1="545.0" y1="59" x2="545.0" y2="71" stroke="#888" stroke-width="1"/>
<text x="545.0" y="92" text-anchor="middle" font-size="12" fill="#888" font-weight="normal" font-family="Georgia,serif">6</text>
<circle cx="177.5" cy="65" r="8" fill="#C0392B" stroke="white" stroke-width="2"/>
<text x="177.5" y="30" text-anchor="middle" font-size="11" fill="#C0392B" font-weight="bold" font-family="Georgia,serif">-3</text>
<circle cx="300.0" cy="65" r="8" fill="#8B1A1A" stroke="white" stroke-width="2"/>
<text x="300.0" y="30" text-anchor="middle" font-size="11" fill="#8B1A1A" font-weight="bold" font-family="Georgia,serif">0</text>
<circle cx="463.3" cy="65" r="8" fill="#2E7D4F" stroke="white" stroke-width="2"/>
<text x="463.3" y="30" text-anchor="middle" font-size="11" fill="#2E7D4F" font-weight="bold" font-family="Georgia,serif">+4</text>
<text x="300" y="120" text-anchor="middle" font-size="11" fill="#666" font-family="Georgia,serif" font-style="italic">Integers: negative, zero, positive</text>
</svg>