<svg width="600" height="130" xmlns="http://www.w3.org/2000/svg" style="background:#FAFAF8;border-radius:12px">
<defs>
<marker id="a1" markerWidth="10" markerHeight="7" refX="9" refY="3.5" orient="auto"><polygon points="0 0,10 3.5,0 7" fill="#5C3D2E"/></marker>
<marker id="a2" markerWidth="10" markerHeight="7" refX="1" refY="3.5" orient="auto"><polygon points="10 0,0 3.5,10 7" fill="#5C3D2E"/></marker>
<marker id="ag" markerWidth="10" markerHeight="7" refX="9" refY="3.5" orient="auto"><polygon points="0 0,10 3.5,0 7" fill="#2E7D4F"/></marker>
<marker id="ar" markerWidth="10" markerHeight="7" refX="9" refY="3.5" orient="auto"><polygon points="0 0,10 3.5,0 7" fill="#C0392B"/></marker>
</defs>
<line x1="40" y1="65" x2="560" y2="65" stroke="#5C3D2E" stroke-width="2.5" marker-end="url(#a1)" marker-start="url(#a2)"/>
<line x1="55.0" y1="59" x2="55.0" y2="71" stroke="#888" stroke-width="1"/>
<text x="55.0" y="92" text-anchor="middle" font-size="12" fill="#888" font-weight="normal" font-family="Georgia,serif">-9</text>
<line x1="90.0" y1="59" x2="90.0" y2="71" stroke="#888" stroke-width="1"/>
<text x="90.0" y="92" text-anchor="middle" font-size="12" fill="#888" font-weight="normal" font-family="Georgia,serif">-8</text>
<line x1="125.0" y1="59" x2="125.0" y2="71" stroke="#888" stroke-width="1"/>
<text x="125.0" y="92" text-anchor="middle" font-size="12" fill="#888" font-weight="normal" font-family="Georgia,serif">-7</text>
<line x1="160.0" y1="59" x2="160.0" y2="71" stroke="#888" stroke-width="1"/>
<text x="160.0" y="92" text-anchor="middle" font-size="12" fill="#888" font-weight="normal" font-family="Georgia,serif">-6</text>
<line x1="195.0" y1="55" x2="195.0" y2="75" stroke="#888" stroke-width="1"/>
<text x="195.0" y="92" text-anchor="middle" font-size="12" fill="#888" font-weight="normal" font-family="Georgia,serif">-5</text>
<line x1="230.0" y1="59" x2="230.0" y2="71" stroke="#888" stroke-width="1"/>
<text x="230.0" y="92" text-anchor="middle" font-size="12" fill="#888" font-weight="normal" font-family="Georgia,serif">-4</text>
<line x1="265.0" y1="59" x2="265.0" y2="71" stroke="#888" stroke-width="1"/>
<text x="265.0" y="92" text-anchor="middle" font-size="12" fill="#888" font-weight="normal" font-family="Georgia,serif">-3</text>
<line x1="300.0" y1="55" x2="300.0" y2="75" stroke="#888" stroke-width="1"/>
<text x="300.0" y="92" text-anchor="middle" font-size="12" fill="#888" font-weight="normal" font-family="Georgia,serif">-2</text>
<line x1="335.0" y1="55" x2="335.0" y2="75" stroke="#888" stroke-width="1"/>
<text x="335.0" y="92" text-anchor="middle" font-size="12" fill="#888" font-weight="normal" font-family="Georgia,serif">-1</text>
<line x1="370.0" y1="55" x2="370.0" y2="75" stroke="#8B1A1A" stroke-width="2"/>
<text x="370.0" y="92" text-anchor="middle" font-size="12" fill="#8B1A1A" font-weight="bold" font-family="Georgia,serif">0</text>
<line x1="405.0" y1="55" x2="405.0" y2="75" stroke="#888" stroke-width="1"/>
<text x="405.0" y="92" text-anchor="middle" font-size="12" fill="#888" font-weight="normal" font-family="Georgia,serif">1</text>
<line x1="440.0" y1="55" x2="440.0" y2="75" stroke="#888" stroke-width="1"/>
<text x="440.0" y="92" text-anchor="middle" font-size="12" fill="#888" font-weight="normal" font-family="Georgia,serif">2</text>
<line x1="475.0" y1="59" x2="475.0" y2="71" stroke="#888" stroke-width="1"/>
<text x="475.0" y="92" text-anchor="middle" font-size="12" fill="#888" font-weight="normal" font-family="Georgia,serif">3</text>
<line x1="510.0" y1="59" x2="510.0" y2="71" stroke="#888" stroke-width="1"/>
<text x="510.0" y="92" text-anchor="middle" font-size="12" fill="#888" font-weight="normal" font-family="Georgia,serif">4</text>
<line x1="545.0" y1="55" x2="545.0" y2="75" stroke="#888" stroke-width="1"/>
<text x="545.0" y="92" text-anchor="middle" font-size="12" fill="#888" font-weight="normal" font-family="Georgia,serif">5</text>
<circle cx="55.0" cy="65" r="8" fill="#C0392B" stroke="white" stroke-width="2"/>
<text x="55.0" y="30" text-anchor="middle" font-size="11" fill="#C0392B" font-weight="bold" font-family="Georgia,serif">-9</text>
<circle cx="195.0" cy="65" r="8" fill="#E8704A" stroke="white" stroke-width="2"/>
<text x="195.0" y="30" text-anchor="middle" font-size="11" fill="#E8704A" font-weight="bold" font-family="Georgia,serif">-5</text>
<circle cx="335.0" cy="65" r="8" fill="#E8A020" stroke="white" stroke-width="2"/>
<text x="335.0" y="30" text-anchor="middle" font-size="11" fill="#E8A020" font-weight="bold" font-family="Georgia,serif">-1</text>
<circle cx="370.0" cy="65" r="8" fill="#8B1A1A" stroke="white" stroke-width="2"/>
<text x="370.0" y="30" text-anchor="middle" font-size="11" fill="#8B1A1A" font-weight="bold" font-family="Georgia,serif">0</text>
<circle cx="440.0" cy="65" r="8" fill="#2E7D4F" stroke="white" stroke-width="2"/>
<text x="440.0" y="30" text-anchor="middle" font-size="11" fill="#2E7D4F" font-weight="bold" font-family="Georgia,serif">2</text>
<circle cx="510.0" cy="65" r="8" fill="#27AE60" stroke="white" stroke-width="2"/>
<text x="510.0" y="30" text-anchor="middle" font-size="11" fill="#27AE60" font-weight="bold" font-family="Georgia,serif">4</text>
<text x="300" y="120" text-anchor="middle" font-size="11" fill="#666" font-family="Georgia,serif" font-style="italic">-9 < -5 < -1 < 0 < 2 < 4</text>
</svg>