<svg width="600" height="130" xmlns="http://www.w3.org/2000/svg" style="background:#FAFAF8;border-radius:12px">
<defs>
<marker id="a1" markerWidth="10" markerHeight="7" refX="9" refY="3.5" orient="auto"><polygon points="0 0,10 3.5,0 7" fill="#5C3D2E"/></marker>
<marker id="a2" markerWidth="10" markerHeight="7" refX="1" refY="3.5" orient="auto"><polygon points="10 0,0 3.5,10 7" fill="#5C3D2E"/></marker>
<marker id="ag" markerWidth="10" markerHeight="7" refX="9" refY="3.5" orient="auto"><polygon points="0 0,10 3.5,0 7" fill="#2E7D4F"/></marker>
<marker id="ar" markerWidth="10" markerHeight="7" refX="9" refY="3.5" orient="auto"><polygon points="0 0,10 3.5,0 7" fill="#C0392B"/></marker>
</defs>
<line x1="40" y1="65" x2="560" y2="65" stroke="#5C3D2E" stroke-width="2.5" marker-end="url(#a1)" marker-start="url(#a2)"/>
<line x1="55.0" y1="59" x2="55.0" y2="71" stroke="#888" stroke-width="1"/>
<text x="55.0" y="92" text-anchor="middle" font-size="12" fill="#888" font-weight="normal" font-family="Georgia,serif">-8</text>
<line x1="104.0" y1="59" x2="104.0" y2="71" stroke="#888" stroke-width="1"/>
<text x="104.0" y="92" text-anchor="middle" font-size="12" fill="#888" font-weight="normal" font-family="Georgia,serif">-7</text>
<line x1="153.0" y1="59" x2="153.0" y2="71" stroke="#888" stroke-width="1"/>
<text x="153.0" y="92" text-anchor="middle" font-size="12" fill="#888" font-weight="normal" font-family="Georgia,serif">-6</text>
<line x1="202.0" y1="55" x2="202.0" y2="75" stroke="#888" stroke-width="1"/>
<text x="202.0" y="92" text-anchor="middle" font-size="12" fill="#888" font-weight="normal" font-family="Georgia,serif">-5</text>
<line x1="251.0" y1="59" x2="251.0" y2="71" stroke="#888" stroke-width="1"/>
<text x="251.0" y="92" text-anchor="middle" font-size="12" fill="#888" font-weight="normal" font-family="Georgia,serif">-4</text>
<line x1="300.0" y1="59" x2="300.0" y2="71" stroke="#888" stroke-width="1"/>
<text x="300.0" y="92" text-anchor="middle" font-size="12" fill="#888" font-weight="normal" font-family="Georgia,serif">-3</text>
<line x1="349.0" y1="55" x2="349.0" y2="75" stroke="#888" stroke-width="1"/>
<text x="349.0" y="92" text-anchor="middle" font-size="12" fill="#888" font-weight="normal" font-family="Georgia,serif">-2</text>
<line x1="398.0" y1="55" x2="398.0" y2="75" stroke="#888" stroke-width="1"/>
<text x="398.0" y="92" text-anchor="middle" font-size="12" fill="#888" font-weight="normal" font-family="Georgia,serif">-1</text>
<line x1="447.0" y1="55" x2="447.0" y2="75" stroke="#8B1A1A" stroke-width="2"/>
<text x="447.0" y="92" text-anchor="middle" font-size="12" fill="#8B1A1A" font-weight="bold" font-family="Georgia,serif">0</text>
<line x1="496.0" y1="55" x2="496.0" y2="75" stroke="#888" stroke-width="1"/>
<text x="496.0" y="92" text-anchor="middle" font-size="12" fill="#888" font-weight="normal" font-family="Georgia,serif">1</text>
<line x1="545.0" y1="55" x2="545.0" y2="75" stroke="#888" stroke-width="1"/>
<text x="545.0" y="92" text-anchor="middle" font-size="12" fill="#888" font-weight="normal" font-family="Georgia,serif">2</text>
<line x1="349.0" y1="45" x2="202.0" y2="45" stroke="#C0392B" stroke-width="3" marker-end="url(#ar)"/>
<text x="275.5" y="39" text-anchor="middle" font-size="11" fill="#C0392B" font-weight="bold" font-family="Georgia,serif">−3 ←</text>
<circle cx="349.0" cy="65" r="8" fill="#8B1A1A" stroke="white" stroke-width="2"/>
<text x="349.0" y="30" text-anchor="middle" font-size="11" fill="#8B1A1A" font-weight="bold" font-family="Georgia,serif">start -2</text>
<circle cx="202.0" cy="65" r="8" fill="#C0392B" stroke="white" stroke-width="2"/>
<text x="202.0" y="30" text-anchor="middle" font-size="11" fill="#C0392B" font-weight="bold" font-family="Georgia,serif">end -5</text>
<text x="300" y="120" text-anchor="middle" font-size="11" fill="#666" font-family="Georgia,serif" font-style="italic">-2 − 3 = -5  (3 steps left from -2)</text>
</svg>