<svg width="600" height="130" xmlns="http://www.w3.org/2000/svg" style="background:#FAFAF8;border-radius:12px">
<defs>
<marker id="a1" markerWidth="10" markerHeight="7" refX="9" refY="3.5" orient="auto"><polygon points="0 0,10 3.5,0 7" fill="#5C3D2E"/></marker>
<marker id="a2" markerWidth="10" markerHeight="7" refX="1" refY="3.5" orient="auto"><polygon points="10 0,0 3.5,10 7" fill="#5C3D2E"/></marker>
<marker id="ag" markerWidth="10" markerHeight="7" refX="9" refY="3.5" orient="auto"><polygon points="0 0,10 3.5,0 7" fill="#2E7D4F"/></marker>
<marker id="ar" markerWidth="10" markerHeight="7" refX="9" refY="3.5" orient="auto"><polygon points="0 0,10 3.5,0 7" fill="#C0392B"/></marker>
</defs>
<line x1="40" y1="65" x2="560" y2="65" stroke="#5C3D2E" stroke-width="2.5" marker-end="url(#a1)" marker-start="url(#a2)"/>
<line x1="55.0" y1="55" x2="55.0" y2="75" stroke="#888" stroke-width="1"/>
<text x="55.0" y="92" text-anchor="middle" font-size="12" fill="#888" font-weight="normal" font-family="Georgia,serif">-2</text>
<line x1="85.6" y1="55" x2="85.6" y2="75" stroke="#888" stroke-width="1"/>
<text x="85.6" y="92" text-anchor="middle" font-size="12" fill="#888" font-weight="normal" font-family="Georgia,serif">-1</text>
<line x1="116.2" y1="55" x2="116.2" y2="75" stroke="#8B1A1A" stroke-width="2"/>
<text x="116.2" y="92" text-anchor="middle" font-size="12" fill="#8B1A1A" font-weight="bold" font-family="Georgia,serif">0</text>
<line x1="146.9" y1="55" x2="146.9" y2="75" stroke="#888" stroke-width="1"/>
<text x="146.9" y="92" text-anchor="middle" font-size="12" fill="#888" font-weight="normal" font-family="Georgia,serif">1</text>
<line x1="177.5" y1="55" x2="177.5" y2="75" stroke="#888" stroke-width="1"/>
<text x="177.5" y="92" text-anchor="middle" font-size="12" fill="#888" font-weight="normal" font-family="Georgia,serif">2</text>
<line x1="208.1" y1="59" x2="208.1" y2="71" stroke="#888" stroke-width="1"/>
<line x1="238.8" y1="59" x2="238.8" y2="71" stroke="#888" stroke-width="1"/>
<line x1="269.4" y1="55" x2="269.4" y2="75" stroke="#888" stroke-width="1"/>
<text x="269.4" y="92" text-anchor="middle" font-size="12" fill="#888" font-weight="normal" font-family="Georgia,serif">5</text>
<line x1="300.0" y1="59" x2="300.0" y2="71" stroke="#888" stroke-width="1"/>
<line x1="330.6" y1="59" x2="330.6" y2="71" stroke="#888" stroke-width="1"/>
<line x1="361.2" y1="59" x2="361.2" y2="71" stroke="#888" stroke-width="1"/>
<line x1="391.9" y1="59" x2="391.9" y2="71" stroke="#888" stroke-width="1"/>
<line x1="422.5" y1="55" x2="422.5" y2="75" stroke="#888" stroke-width="1"/>
<text x="422.5" y="92" text-anchor="middle" font-size="12" fill="#888" font-weight="normal" font-family="Georgia,serif">10</text>
<line x1="453.1" y1="59" x2="453.1" y2="71" stroke="#888" stroke-width="1"/>
<line x1="483.8" y1="59" x2="483.8" y2="71" stroke="#888" stroke-width="1"/>
<line x1="514.4" y1="59" x2="514.4" y2="71" stroke="#888" stroke-width="1"/>
<line x1="545.0" y1="59" x2="545.0" y2="71" stroke="#888" stroke-width="1"/>
<line x1="116.2" y1="45" x2="238.8" y2="45" stroke="#2E7D4F" stroke-width="3" marker-end="url(#ag)"/>
<text x="177.5" y="39" text-anchor="middle" font-size="11" fill="#2E7D4F" font-weight="bold" font-family="Georgia,serif">+4</text>
<line x1="238.8" y1="27" x2="361.2" y2="27" stroke="#2E7D4F" stroke-width="3" marker-end="url(#ag)"/>
<text x="300.0" y="21" text-anchor="middle" font-size="11" fill="#2E7D4F" font-weight="bold" font-family="Georgia,serif">+4</text>
<line x1="361.2" y1="9" x2="483.8" y2="9" stroke="#2E7D4F" stroke-width="3" marker-end="url(#ag)"/>
<text x="422.5" y="3" text-anchor="middle" font-size="11" fill="#2E7D4F" font-weight="bold" font-family="Georgia,serif">+4</text>
<circle cx="116.2" cy="65" r="8" fill="#8B1A1A" stroke="white" stroke-width="2"/>
<text x="116.2" y="30" text-anchor="middle" font-size="11" fill="#8B1A1A" font-weight="bold" font-family="Georgia,serif">0</text>
<circle cx="483.8" cy="65" r="8" fill="#2E7D4F" stroke="white" stroke-width="2"/>
<text x="483.8" y="30" text-anchor="middle" font-size="11" fill="#2E7D4F" font-weight="bold" font-family="Georgia,serif">+12</text>
<text x="300" y="120" text-anchor="middle" font-size="11" fill="#666" font-family="Georgia,serif" font-style="italic">(-3) × (-4) = +12  (reverse of -3 groups of -4)</text>
</svg>